<?xml version="1.0" encoding="UTF-8"?>
<svg id="Layer_1" data-name="Layer 1" xmlns="http://www.w3.org/2000/svg" viewBox="0 0 960 960">
  <defs>
    <style>
      .cls-1 {
        fill-rule: evenodd;
      }

      .cls-1, .cls-2 {
        fill: #007acc;
      }
    </style>
  </defs>
  <path class="cls-2" d="m358.15,381.6h-34.65v107.33h-14.16v-107.33h-34.44v-12.68h83.24v12.68Zm65.28,21.55l-39.51,99.51c-6.97,17.75-16.9,26.62-29.58,26.62-3.59,0-6.55-.42-8.87-1.06v-12.25c2.96,1.06,5.7,1.48,8.03,1.48,6.97,0,12.04-4.23,15.63-12.47l6.76-16.27-33.38-85.57h15.21l23.24,65.92c.21.85.85,2.96,1.69,6.55h.42c.21-1.27.85-3.38,1.69-6.34l24.3-66.13h14.37Zm22.4,73.31h-.42v51.76h-13.73v-125.07h13.73v15h.42c6.76-11.41,16.69-17.11,29.58-17.11,10.99,0,19.65,3.8,25.78,11.41s9.3,17.96,9.3,30.85c0,14.37-3.59,25.78-10.56,34.44-6.97,8.66-16.48,12.89-28.52,12.89-10.78.42-19.44-4.44-25.56-14.16h0Zm-.21-34.44v12.04c0,7.18,2.32,13.1,6.97,17.96,4.65,4.86,10.35,7.39,17.54,7.39,8.24,0,14.79-3.17,19.65-9.51,4.65-6.34,6.97-15.21,6.97-26.62,0-9.51-2.11-17.11-6.55-22.4-4.44-5.49-10.35-8.03-17.96-8.03-8.03,0-14.37,2.75-19.23,8.24-5.07,5.49-7.39,12.47-7.39,20.92h0Zm148.95,7.39h-60.42c.21,9.51,2.75,16.9,7.61,22.18,4.86,5.28,11.62,7.82,20.28,7.82,9.72,0,18.59-3.17,26.62-9.51v12.89c-7.61,5.49-17.54,8.24-29.79,8.24s-21.55-3.8-28.52-11.62c-6.97-7.82-10.35-18.8-10.35-32.75s3.8-24.3,11.41-32.54c7.61-8.45,16.9-12.68,28.1-12.68s19.86,3.59,25.99,10.99c6.13,7.18,9.3,17.32,9.3,30.21l-.21,6.76h0Zm-14.16-11.62c0-8.03-1.9-14.16-5.7-18.59-3.8-4.44-9.08-6.55-15.63-6.55s-12.04,2.32-16.48,6.97-7.39,10.78-8.45,18.17h46.27Zm20.92,46.9v-9.51c8.66,5.49,17.32,8.24,26.2,8.24s16.48-1.9,21.34-5.92,7.18-9.3,7.18-16.27c0-6.13-1.69-10.99-4.86-14.79-3.17-3.59-10.35-8.66-21.13-15-12.25-7.18-19.86-13.1-23.03-17.75-3.17-4.86-4.86-10.35-4.86-16.48,0-8.45,3.38-15.63,9.93-21.55,6.55-5.92,15.42-8.87,26.41-8.87,7.18,0,14.37,1.27,21.34,3.59v8.66c-6.97-3.17-14.58-4.86-22.61-4.86s-14.58,2.11-19.44,6.13c-4.86,4.23-7.18,9.3-7.18,15.63s1.69,10.99,4.86,14.58c3.17,3.59,10.35,8.66,21.13,14.79,11.2,6.34,18.59,12.04,22.4,16.9,3.8,4.86,5.49,10.56,5.49,17.11,0,9.3-3.17,16.69-9.51,22.61-6.34,5.92-15.42,8.66-27.04,8.66-4.23,0-8.87-.63-14.37-1.9-5.49-1.27-9.51-2.32-12.25-4.01h0Zm134.58.42c-6.34,3.8-13.94,5.92-22.82,5.92-11.62,0-21.13-4.01-28.31-12.04s-10.78-18.38-10.78-31.48,4.01-24.72,12.04-33.38c8.03-8.66,18.38-13.1,31.06-13.1,6.55,0,12.89,1.27,19.01,4.01v8.66c-6.13-3.8-12.89-5.7-20.07-5.7-10.14,0-18.17,3.59-24.51,10.78s-9.3,16.69-9.3,28.1,2.96,20.07,8.66,26.83c5.7,6.76,13.31,10.14,22.61,10.14,8.66,0,16.06-2.32,22.4-6.76v8.03h0Zm51.13-73.95c-2.54-1.9-5.49-2.75-9.08-2.75-6.76,0-12.47,3.59-16.9,10.56-4.65,6.97-6.76,16.9-6.76,29.79v40.35h-7.61v-85.99h7.61v19.01h.42c1.9-6.55,5.07-11.62,9.3-15.21,4.23-3.59,9.08-5.49,14.79-5.49,3.17,0,6.13.42,8.45,1.48v8.24h-.21Zm12.25-29.58c-1.69,0-3.17-.63-4.44-1.9-1.27-1.27-1.9-2.75-1.9-4.65s.63-3.38,1.9-4.44c1.27-1.06,2.75-1.69,4.44-1.69s3.17.63,4.65,1.69c1.27,1.06,1.9,2.54,1.9,4.44,0,1.69-.63,3.38-1.9,4.65-1.48,1.27-2.96,1.9-4.65,1.9Zm-3.8,107.33v-85.78h7.61v85.78h-7.61Zm34.02-15.21h-.42v54.72h-7.61v-125.29h7.61v17.75h.42c3.17-6.34,7.39-11.2,13.1-14.58,5.7-3.38,12.04-5.07,18.8-5.07,10.99,0,19.44,3.8,25.56,11.2,6.13,7.61,9.08,17.75,9.08,30.63,0,14.37-3.59,25.99-10.56,34.86-6.97,8.87-16.27,13.31-27.68,13.31-12.68-.21-22.18-5.92-28.31-17.54Zm-.42-31.9v10.78c0,8.66,2.75,16.06,8.03,22.18,5.49,6.13,12.47,9.3,21.34,9.3s15.85-3.8,21.34-11.2c5.49-7.61,8.24-17.32,8.24-29.58,0-10.78-2.54-19.23-7.61-25.56s-11.62-9.51-20.07-9.51c-9.93,0-17.75,3.38-23.24,10.14s-8.03,14.37-8.03,23.45Zm113.67,45.85c-4.01,1.9-7.82,2.75-11.2,2.75-12.68,0-19.01-7.61-19.01-22.82v-57.26h-15.42v-6.97h15.42v-22.4l3.8-1.27,3.8-1.27v24.93h22.61v6.97h-22.61v56.62c0,5.92.85,10.14,2.75,12.89,1.9,2.75,5.07,4.01,9.51,4.01,3.17,0,6.55-1.06,10.35-3.17v6.97h0Z"/>
  <path class="cls-1" d="m25.05,342.42h192.49c4.31,0,7.8,3.45,7.8,7.72v190.32c0,4.26-3.49,7.72-7.8,7.72H25.05c-4.31,0-7.8-3.45-7.8-7.72v-190.32c0-4.26,3.49-7.72,7.8-7.72Zm107.87,109.46v-16.88H58.87v16.88h26.44v75.14h21.05v-75.14h26.57Zm8.39,73.15c3.39,1.71,7.41,2.99,12.04,3.85,4.64.86,9.52,1.28,14.65,1.28s9.76-.47,14.26-1.41c4.5-.94,8.45-2.49,11.85-4.65,3.39-2.16,6.08-4.98,8.06-8.47s2.97-7.8,2.97-12.93c0-3.72-.57-6.98-1.7-9.79-1.13-2.8-2.76-5.29-4.9-7.48-2.13-2.18-4.69-4.14-7.67-5.87-2.98-1.73-6.34-3.37-10.08-4.91-2.74-1.11-5.2-2.19-7.38-3.24-2.18-1.05-4.03-2.12-5.55-3.21-1.52-1.09-2.7-2.25-3.52-3.47-.83-1.22-1.24-2.6-1.24-4.14,0-1.41.37-2.68,1.11-3.82.74-1.13,1.78-2.11,3.13-2.92s3-1.44,4.96-1.89c1.96-.45,4.13-.67,6.53-.67,1.74,0,3.58.13,5.52.38,1.94.26,3.88.65,5.84,1.19,1.96.53,3.86,1.21,5.71,2.02,1.85.81,3.56,1.75,5.12,2.82v-19.19c-3.18-1.2-6.65-2.09-10.41-2.66-3.76-.58-8.08-.87-12.96-.87s-9.66.52-14.1,1.57c-4.44,1.05-8.34,2.68-11.72,4.91s-6.04,5.06-8,8.5c-1.96,3.44-2.94,7.56-2.94,12.35,0,6.12,1.79,11.34,5.39,15.66,3.59,4.32,9.04,7.98,16.35,10.97,2.87,1.16,5.55,2.29,8.03,3.4,2.48,1.11,4.62,2.27,6.43,3.46,1.81,1.2,3.23,2.5,4.28,3.91s1.57,3.02,1.57,4.81c0,1.33-.33,2.56-.98,3.69-.65,1.13-1.64,2.12-2.97,2.95s-2.98,1.49-4.96,1.96c-1.98.47-4.3.71-6.95.71-4.53,0-9.01-.78-13.45-2.34-4.44-1.56-8.55-3.9-12.34-7.03v20.53Z"/>
</svg>